M48
; DRILL file {KiCad 5.99.0-unknown-f7b20611c1~106~ubuntu20.04.1} date Wed Jan  6 18:34:33 2021
; FORMAT={-:-/ absolute / inch / decimal}
; #@! TF.CreationDate,2021-01-06T18:34:33-03:00
; #@! TF.GenerationSoftware,Kicad,Pcbnew,5.99.0-unknown-f7b20611c1~106~ubuntu20.04.1
; #@! TF.FileFunction,Plated,1,2,PTH
FMAT,2
INCH
T1C0.0157
T2C0.0236
T3C0.0394
%
G90
G05
T1
X0.159Y-1.907
X0.162Y-0.156
X0.2155Y-1.6155
X0.2275Y-2.0575
X0.23Y-1.978
X0.235Y-1.79
X0.2449Y-1.4193
X0.268Y-1.876
X0.27Y-1.6877
X0.275Y-1.48
X0.275Y-2.11
X0.29Y-1.165
X0.3Y-2.0045
X0.305Y-0.54
X0.305Y-0.59
X0.305Y-0.74
X0.305Y-0.79
X0.335Y-0.19
X0.345Y-0.985
X0.35Y-0.79
X0.355Y-1.11
X0.355Y-1.325
X0.3839Y-1.7676
X0.384Y-1.686
X0.395Y-0.79
X0.415Y-1.38
X0.42Y-0.95
X0.42Y-1.54
X0.43Y-1.42
X0.44Y-0.79
X0.45Y-1.59
X0.46Y-1.515
X0.4602Y-1.4476
X0.462Y-1.652
X0.47Y-0.62
X0.47Y-0.975
X0.485Y-0.79
X0.485Y-1.9866
X0.489Y-0.287
X0.51Y-1.185
X0.52Y-1.79
X0.522Y-2.086
X0.532Y-1.12
X0.562Y-1.009
X0.564Y-2.086
X0.577Y-0.286
X0.58Y-1.385
X0.585Y-1.34
X0.59Y-0.64
X0.59Y-0.68
X0.59Y-2.195
X0.591Y-1.502
X0.592Y-1.584
X0.6Y-1.66
X0.6096Y-2.0862
X0.622Y-1.88
X0.63Y-1.36
X0.645Y-0.75
X0.645Y-1.05
X0.6489Y-2.086
X0.6662Y-1.3445
X0.67Y-1.665
X0.675Y-1.98
X0.68Y-0.64
X0.685Y-0.46
X0.69Y-0.75
X0.691Y-0.961
X0.693Y-1.817
X0.7Y-0.68
X0.72Y-0.78
X0.724Y-1.971
X0.735Y-1.375
X0.736Y-1.504
X0.74Y-1.01
X0.741Y-1.439
X0.745Y-1.615
X0.765Y-0.78
X0.774Y-1.964
X0.7865Y-1.0955
X0.795Y-0.81
X0.799Y-1.23
X0.81Y-1.825
X0.815Y-0.5
X0.815Y-0.64
X0.825Y-1.15
X0.835Y-0.545
X0.835Y-0.755
X0.845Y-0.59
X0.845Y-1.741
X0.845Y-1.97
X0.859Y-1.38
X0.8649Y-1.4602
X0.91Y-0.885
X0.915Y-1.675
X0.944Y-2.192
T3
X0.075Y-0.245
X0.075Y-0.345
X0.075Y-0.445
X0.075Y-0.545
X0.075Y-0.645
X0.075Y-0.745
X0.075Y-0.845
X0.075Y-0.945
X0.075Y-1.045
X0.075Y-1.145
X0.075Y-1.245
X0.075Y-1.345
X0.075Y-1.445
X0.075Y-1.545
X0.075Y-1.645
X0.075Y-1.745
X0.075Y-1.845
X0.075Y-1.945
X0.075Y-2.045
X1.075Y-0.245
X1.075Y-0.345
X1.075Y-0.445
X1.075Y-0.545
X1.075Y-0.645
X1.075Y-0.745
X1.075Y-0.845
X1.075Y-0.945
X1.075Y-1.045
X1.075Y-1.145
X1.075Y-1.245
X1.075Y-1.345
X1.075Y-1.445
X1.075Y-1.545
X1.075Y-1.645
X1.075Y-1.745
X1.075Y-1.845
X1.075Y-1.945
X1.075Y-2.045
T2
G00X0.4099Y-2.0707
M15
G01X0.4099Y-2.0274
M16
G05
G00X0.4099Y-2.2289
M15
G01X0.4099Y-2.1974
M16
G05
G00X0.7501Y-2.0707
M15
G01X0.7501Y-2.0274
M16
G05
G00X0.7501Y-2.2289
M15
G01X0.7501Y-2.1974
M16
G05
T0
M30
