%TF.GenerationSoftware,KiCad,Pcbnew,5.99.0-unknown-f7b20611c1~106~ubuntu20.04.1*%
%TF.CreationDate,2021-01-06T18:34:38-03:00*%
%TF.ProjectId,lisa32,6c697361-3332-42e6-9b69-6361645f7063,rev?*%
%TF.SameCoordinates,Original*%
%TF.FileFunction,Legend,Bot*%
%TF.FilePolarity,Positive*%
%FSLAX46Y46*%
G04 Gerber Fmt 4.6, Leading zero omitted, Abs format (unit mm)*
G04 Created by KiCad (PCBNEW 5.99.0-unknown-f7b20611c1~106~ubuntu20.04.1) date 2021-01-06 18:34:38*
%MOMM*%
%LPD*%
G01*
G04 APERTURE LIST*
%ADD10C,0.150000*%
%ADD11C,0.120000*%
G04 APERTURE END LIST*
D10*
%TO.C,D2*%
X18017266Y-51720704D02*
X18017266Y-50920704D01*
X17850600Y-50920704D01*
X17750600Y-50958800D01*
X17683933Y-51034990D01*
X17650600Y-51111180D01*
X17617266Y-51263561D01*
X17617266Y-51377847D01*
X17650600Y-51530228D01*
X17683933Y-51606419D01*
X17750600Y-51682609D01*
X17850600Y-51720704D01*
X18017266Y-51720704D01*
X17350600Y-50996895D02*
X17317266Y-50958800D01*
X17250600Y-50920704D01*
X17083933Y-50920704D01*
X17017266Y-50958800D01*
X16983933Y-50996895D01*
X16950600Y-51073085D01*
X16950600Y-51149276D01*
X16983933Y-51263561D01*
X17383933Y-51720704D01*
X16950600Y-51720704D01*
%TO.C,Q2*%
X18417666Y-16427095D02*
X18484333Y-16389000D01*
X18551000Y-16312809D01*
X18651000Y-16198523D01*
X18717666Y-16160428D01*
X18784333Y-16160428D01*
X18751000Y-16350904D02*
X18817666Y-16312809D01*
X18884333Y-16236619D01*
X18917666Y-16084238D01*
X18917666Y-15817571D01*
X18884333Y-15665190D01*
X18817666Y-15589000D01*
X18751000Y-15550904D01*
X18617666Y-15550904D01*
X18551000Y-15589000D01*
X18484333Y-15665190D01*
X18451000Y-15817571D01*
X18451000Y-16084238D01*
X18484333Y-16236619D01*
X18551000Y-16312809D01*
X18617666Y-16350904D01*
X18751000Y-16350904D01*
X18184333Y-15627095D02*
X18151000Y-15589000D01*
X18084333Y-15550904D01*
X17917666Y-15550904D01*
X17851000Y-15589000D01*
X17817666Y-15627095D01*
X17784333Y-15703285D01*
X17784333Y-15779476D01*
X17817666Y-15893761D01*
X18217666Y-16350904D01*
X17784333Y-16350904D01*
%TO.C,R5*%
X13934266Y-16287704D02*
X14167600Y-15906752D01*
X14334266Y-16287704D02*
X14334266Y-15487704D01*
X14067600Y-15487704D01*
X14000933Y-15525800D01*
X13967600Y-15563895D01*
X13934266Y-15640085D01*
X13934266Y-15754371D01*
X13967600Y-15830561D01*
X14000933Y-15868657D01*
X14067600Y-15906752D01*
X14334266Y-15906752D01*
X13300933Y-15487704D02*
X13634266Y-15487704D01*
X13667600Y-15868657D01*
X13634266Y-15830561D01*
X13567600Y-15792466D01*
X13400933Y-15792466D01*
X13334266Y-15830561D01*
X13300933Y-15868657D01*
X13267600Y-15944847D01*
X13267600Y-16135323D01*
X13300933Y-16211514D01*
X13334266Y-16249609D01*
X13400933Y-16287704D01*
X13567600Y-16287704D01*
X13634266Y-16249609D01*
X13667600Y-16211514D01*
%TO.C,R3*%
X16626666Y-57384904D02*
X16860000Y-57003952D01*
X17026666Y-57384904D02*
X17026666Y-56584904D01*
X16760000Y-56584904D01*
X16693333Y-56623000D01*
X16660000Y-56661095D01*
X16626666Y-56737285D01*
X16626666Y-56851571D01*
X16660000Y-56927761D01*
X16693333Y-56965857D01*
X16760000Y-57003952D01*
X17026666Y-57003952D01*
X16393333Y-56584904D02*
X15960000Y-56584904D01*
X16193333Y-56889666D01*
X16093333Y-56889666D01*
X16026666Y-56927761D01*
X15993333Y-56965857D01*
X15960000Y-57042047D01*
X15960000Y-57232523D01*
X15993333Y-57308714D01*
X16026666Y-57346809D01*
X16093333Y-57384904D01*
X16293333Y-57384904D01*
X16360000Y-57346809D01*
X16393333Y-57308714D01*
%TO.C,C17*%
X20846200Y-34042314D02*
X20879533Y-34080409D01*
X20979533Y-34118504D01*
X21046200Y-34118504D01*
X21146200Y-34080409D01*
X21212866Y-34004219D01*
X21246200Y-33928028D01*
X21279533Y-33775647D01*
X21279533Y-33661361D01*
X21246200Y-33508980D01*
X21212866Y-33432790D01*
X21146200Y-33356600D01*
X21046200Y-33318504D01*
X20979533Y-33318504D01*
X20879533Y-33356600D01*
X20846200Y-33394695D01*
X20179533Y-34118504D02*
X20579533Y-34118504D01*
X20379533Y-34118504D02*
X20379533Y-33318504D01*
X20446200Y-33432790D01*
X20512866Y-33508980D01*
X20579533Y-33547076D01*
X19946200Y-33318504D02*
X19479533Y-33318504D01*
X19779533Y-34118504D01*
%TO.C,R2*%
X13578666Y-57384904D02*
X13812000Y-57003952D01*
X13978666Y-57384904D02*
X13978666Y-56584904D01*
X13712000Y-56584904D01*
X13645333Y-56623000D01*
X13612000Y-56661095D01*
X13578666Y-56737285D01*
X13578666Y-56851571D01*
X13612000Y-56927761D01*
X13645333Y-56965857D01*
X13712000Y-57003952D01*
X13978666Y-57003952D01*
X13312000Y-56661095D02*
X13278666Y-56623000D01*
X13212000Y-56584904D01*
X13045333Y-56584904D01*
X12978666Y-56623000D01*
X12945333Y-56661095D01*
X12912000Y-56737285D01*
X12912000Y-56813476D01*
X12945333Y-56927761D01*
X13345333Y-57384904D01*
X12912000Y-57384904D01*
%TO.C,L2*%
X4485466Y-44329304D02*
X4818800Y-44329304D01*
X4818800Y-43529304D01*
X4285466Y-43605495D02*
X4252133Y-43567400D01*
X4185466Y-43529304D01*
X4018800Y-43529304D01*
X3952133Y-43567400D01*
X3918800Y-43605495D01*
X3885466Y-43681685D01*
X3885466Y-43757876D01*
X3918800Y-43872161D01*
X4318800Y-44329304D01*
X3885466Y-44329304D01*
%TO.C,U4*%
X7137333Y-41294104D02*
X7137333Y-41941723D01*
X7104000Y-42017914D01*
X7070666Y-42056009D01*
X7004000Y-42094104D01*
X6870666Y-42094104D01*
X6804000Y-42056009D01*
X6770666Y-42017914D01*
X6737333Y-41941723D01*
X6737333Y-41294104D01*
X6104000Y-41560771D02*
X6104000Y-42094104D01*
X6270666Y-41256009D02*
X6437333Y-41827438D01*
X6004000Y-41827438D01*
%TO.C,R20*%
X14826400Y-37369704D02*
X15059733Y-36988752D01*
X15226400Y-37369704D02*
X15226400Y-36569704D01*
X14959733Y-36569704D01*
X14893066Y-36607800D01*
X14859733Y-36645895D01*
X14826400Y-36722085D01*
X14826400Y-36836371D01*
X14859733Y-36912561D01*
X14893066Y-36950657D01*
X14959733Y-36988752D01*
X15226400Y-36988752D01*
X14559733Y-36645895D02*
X14526400Y-36607800D01*
X14459733Y-36569704D01*
X14293066Y-36569704D01*
X14226400Y-36607800D01*
X14193066Y-36645895D01*
X14159733Y-36722085D01*
X14159733Y-36798276D01*
X14193066Y-36912561D01*
X14593066Y-37369704D01*
X14159733Y-37369704D01*
X13726400Y-36569704D02*
X13659733Y-36569704D01*
X13593066Y-36607800D01*
X13559733Y-36645895D01*
X13526400Y-36722085D01*
X13493066Y-36874466D01*
X13493066Y-37064942D01*
X13526400Y-37217323D01*
X13559733Y-37293514D01*
X13593066Y-37331609D01*
X13659733Y-37369704D01*
X13726400Y-37369704D01*
X13793066Y-37331609D01*
X13826400Y-37293514D01*
X13859733Y-37217323D01*
X13893066Y-37064942D01*
X13893066Y-36874466D01*
X13859733Y-36722085D01*
X13826400Y-36645895D01*
X13793066Y-36607800D01*
X13726400Y-36569704D01*
%TO.C,R21*%
X8895000Y-11156904D02*
X9128333Y-10775952D01*
X9295000Y-11156904D02*
X9295000Y-10356904D01*
X9028333Y-10356904D01*
X8961666Y-10395000D01*
X8928333Y-10433095D01*
X8895000Y-10509285D01*
X8895000Y-10623571D01*
X8928333Y-10699761D01*
X8961666Y-10737857D01*
X9028333Y-10775952D01*
X9295000Y-10775952D01*
X8628333Y-10433095D02*
X8595000Y-10395000D01*
X8528333Y-10356904D01*
X8361666Y-10356904D01*
X8295000Y-10395000D01*
X8261666Y-10433095D01*
X8228333Y-10509285D01*
X8228333Y-10585476D01*
X8261666Y-10699761D01*
X8661666Y-11156904D01*
X8228333Y-11156904D01*
X7561666Y-11156904D02*
X7961666Y-11156904D01*
X7761666Y-11156904D02*
X7761666Y-10356904D01*
X7828333Y-10471190D01*
X7895000Y-10547380D01*
X7961666Y-10585476D01*
%TO.C,C19*%
X12718200Y-34042314D02*
X12751533Y-34080409D01*
X12851533Y-34118504D01*
X12918200Y-34118504D01*
X13018200Y-34080409D01*
X13084866Y-34004219D01*
X13118200Y-33928028D01*
X13151533Y-33775647D01*
X13151533Y-33661361D01*
X13118200Y-33508980D01*
X13084866Y-33432790D01*
X13018200Y-33356600D01*
X12918200Y-33318504D01*
X12851533Y-33318504D01*
X12751533Y-33356600D01*
X12718200Y-33394695D01*
X12051533Y-34118504D02*
X12451533Y-34118504D01*
X12251533Y-34118504D02*
X12251533Y-33318504D01*
X12318200Y-33432790D01*
X12384866Y-33508980D01*
X12451533Y-33547076D01*
X11718200Y-34118504D02*
X11584866Y-34118504D01*
X11518200Y-34080409D01*
X11484866Y-34042314D01*
X11418200Y-33928028D01*
X11384866Y-33775647D01*
X11384866Y-33470885D01*
X11418200Y-33394695D01*
X11451533Y-33356600D01*
X11518200Y-33318504D01*
X11651533Y-33318504D01*
X11718200Y-33356600D01*
X11751533Y-33394695D01*
X11784866Y-33470885D01*
X11784866Y-33661361D01*
X11751533Y-33737552D01*
X11718200Y-33775647D01*
X11651533Y-33813742D01*
X11518200Y-33813742D01*
X11451533Y-33775647D01*
X11418200Y-33737552D01*
X11384866Y-33661361D01*
%TO.C,C15*%
X9492400Y-47148714D02*
X9525733Y-47186809D01*
X9625733Y-47224904D01*
X9692400Y-47224904D01*
X9792400Y-47186809D01*
X9859066Y-47110619D01*
X9892400Y-47034428D01*
X9925733Y-46882047D01*
X9925733Y-46767761D01*
X9892400Y-46615380D01*
X9859066Y-46539190D01*
X9792400Y-46463000D01*
X9692400Y-46424904D01*
X9625733Y-46424904D01*
X9525733Y-46463000D01*
X9492400Y-46501095D01*
X8825733Y-47224904D02*
X9225733Y-47224904D01*
X9025733Y-47224904D02*
X9025733Y-46424904D01*
X9092400Y-46539190D01*
X9159066Y-46615380D01*
X9225733Y-46653476D01*
X8192400Y-46424904D02*
X8525733Y-46424904D01*
X8559066Y-46805857D01*
X8525733Y-46767761D01*
X8459066Y-46729666D01*
X8292400Y-46729666D01*
X8225733Y-46767761D01*
X8192400Y-46805857D01*
X8159066Y-46882047D01*
X8159066Y-47072523D01*
X8192400Y-47148714D01*
X8225733Y-47186809D01*
X8292400Y-47224904D01*
X8459066Y-47224904D01*
X8525733Y-47186809D01*
X8559066Y-47148714D01*
%TO.C,C11*%
X11524400Y-31172114D02*
X11557733Y-31210209D01*
X11657733Y-31248304D01*
X11724400Y-31248304D01*
X11824400Y-31210209D01*
X11891066Y-31134019D01*
X11924400Y-31057828D01*
X11957733Y-30905447D01*
X11957733Y-30791161D01*
X11924400Y-30638780D01*
X11891066Y-30562590D01*
X11824400Y-30486400D01*
X11724400Y-30448304D01*
X11657733Y-30448304D01*
X11557733Y-30486400D01*
X11524400Y-30524495D01*
X10857733Y-31248304D02*
X11257733Y-31248304D01*
X11057733Y-31248304D02*
X11057733Y-30448304D01*
X11124400Y-30562590D01*
X11191066Y-30638780D01*
X11257733Y-30676876D01*
X10191066Y-31248304D02*
X10591066Y-31248304D01*
X10391066Y-31248304D02*
X10391066Y-30448304D01*
X10457733Y-30562590D01*
X10524400Y-30638780D01*
X10591066Y-30676876D01*
%TO.C,R19*%
X14826400Y-36379104D02*
X15059733Y-35998152D01*
X15226400Y-36379104D02*
X15226400Y-35579104D01*
X14959733Y-35579104D01*
X14893066Y-35617200D01*
X14859733Y-35655295D01*
X14826400Y-35731485D01*
X14826400Y-35845771D01*
X14859733Y-35921961D01*
X14893066Y-35960057D01*
X14959733Y-35998152D01*
X15226400Y-35998152D01*
X14159733Y-36379104D02*
X14559733Y-36379104D01*
X14359733Y-36379104D02*
X14359733Y-35579104D01*
X14426400Y-35693390D01*
X14493066Y-35769580D01*
X14559733Y-35807676D01*
X13826400Y-36379104D02*
X13693066Y-36379104D01*
X13626400Y-36341009D01*
X13593066Y-36302914D01*
X13526400Y-36188628D01*
X13493066Y-36036247D01*
X13493066Y-35731485D01*
X13526400Y-35655295D01*
X13559733Y-35617200D01*
X13626400Y-35579104D01*
X13759733Y-35579104D01*
X13826400Y-35617200D01*
X13859733Y-35655295D01*
X13893066Y-35731485D01*
X13893066Y-35921961D01*
X13859733Y-35998152D01*
X13826400Y-36036247D01*
X13759733Y-36074342D01*
X13626400Y-36074342D01*
X13559733Y-36036247D01*
X13526400Y-35998152D01*
X13493066Y-35921961D01*
%TO.C,R1*%
X8752666Y-55225904D02*
X8986000Y-54844952D01*
X9152666Y-55225904D02*
X9152666Y-54425904D01*
X8886000Y-54425904D01*
X8819333Y-54464000D01*
X8786000Y-54502095D01*
X8752666Y-54578285D01*
X8752666Y-54692571D01*
X8786000Y-54768761D01*
X8819333Y-54806857D01*
X8886000Y-54844952D01*
X9152666Y-54844952D01*
X8086000Y-55225904D02*
X8486000Y-55225904D01*
X8286000Y-55225904D02*
X8286000Y-54425904D01*
X8352666Y-54540190D01*
X8419333Y-54616380D01*
X8486000Y-54654476D01*
%TO.C,C7*%
X19115866Y-39528714D02*
X19149200Y-39566809D01*
X19249200Y-39604904D01*
X19315866Y-39604904D01*
X19415866Y-39566809D01*
X19482533Y-39490619D01*
X19515866Y-39414428D01*
X19549200Y-39262047D01*
X19549200Y-39147761D01*
X19515866Y-38995380D01*
X19482533Y-38919190D01*
X19415866Y-38843000D01*
X19315866Y-38804904D01*
X19249200Y-38804904D01*
X19149200Y-38843000D01*
X19115866Y-38881095D01*
X18882533Y-38804904D02*
X18415866Y-38804904D01*
X18715866Y-39604904D01*
%TO.C,R4*%
X15483666Y-11715704D02*
X15717000Y-11334752D01*
X15883666Y-11715704D02*
X15883666Y-10915704D01*
X15617000Y-10915704D01*
X15550333Y-10953800D01*
X15517000Y-10991895D01*
X15483666Y-11068085D01*
X15483666Y-11182371D01*
X15517000Y-11258561D01*
X15550333Y-11296657D01*
X15617000Y-11334752D01*
X15883666Y-11334752D01*
X14883666Y-11182371D02*
X14883666Y-11715704D01*
X15050333Y-10877609D02*
X15217000Y-11449038D01*
X14783666Y-11449038D01*
%TO.C,L1*%
X17820466Y-42602104D02*
X18153800Y-42602104D01*
X18153800Y-41802104D01*
X17220466Y-42602104D02*
X17620466Y-42602104D01*
X17420466Y-42602104D02*
X17420466Y-41802104D01*
X17487133Y-41916390D01*
X17553800Y-41992580D01*
X17620466Y-42030676D01*
%TO.C,Q1*%
X10226666Y-16440095D02*
X10293333Y-16402000D01*
X10360000Y-16325809D01*
X10460000Y-16211523D01*
X10526666Y-16173428D01*
X10593333Y-16173428D01*
X10560000Y-16363904D02*
X10626666Y-16325809D01*
X10693333Y-16249619D01*
X10726666Y-16097238D01*
X10726666Y-15830571D01*
X10693333Y-15678190D01*
X10626666Y-15602000D01*
X10560000Y-15563904D01*
X10426666Y-15563904D01*
X10360000Y-15602000D01*
X10293333Y-15678190D01*
X10260000Y-15830571D01*
X10260000Y-16097238D01*
X10293333Y-16249619D01*
X10360000Y-16325809D01*
X10426666Y-16363904D01*
X10560000Y-16363904D01*
X9593333Y-16363904D02*
X9993333Y-16363904D01*
X9793333Y-16363904D02*
X9793333Y-15563904D01*
X9860000Y-15678190D01*
X9926666Y-15754380D01*
X9993333Y-15792476D01*
%TO.C,C22*%
X9390800Y-5238714D02*
X9424133Y-5276809D01*
X9524133Y-5314904D01*
X9590800Y-5314904D01*
X9690800Y-5276809D01*
X9757466Y-5200619D01*
X9790800Y-5124428D01*
X9824133Y-4972047D01*
X9824133Y-4857761D01*
X9790800Y-4705380D01*
X9757466Y-4629190D01*
X9690800Y-4553000D01*
X9590800Y-4514904D01*
X9524133Y-4514904D01*
X9424133Y-4553000D01*
X9390800Y-4591095D01*
X9124133Y-4591095D02*
X9090800Y-4553000D01*
X9024133Y-4514904D01*
X8857466Y-4514904D01*
X8790800Y-4553000D01*
X8757466Y-4591095D01*
X8724133Y-4667285D01*
X8724133Y-4743476D01*
X8757466Y-4857761D01*
X9157466Y-5314904D01*
X8724133Y-5314904D01*
X8457466Y-4591095D02*
X8424133Y-4553000D01*
X8357466Y-4514904D01*
X8190800Y-4514904D01*
X8124133Y-4553000D01*
X8090800Y-4591095D01*
X8057466Y-4667285D01*
X8057466Y-4743476D01*
X8090800Y-4857761D01*
X8490800Y-5314904D01*
X8057466Y-5314904D01*
%TO.C,C20*%
X8895000Y-9429714D02*
X8928333Y-9467809D01*
X9028333Y-9505904D01*
X9095000Y-9505904D01*
X9195000Y-9467809D01*
X9261666Y-9391619D01*
X9295000Y-9315428D01*
X9328333Y-9163047D01*
X9328333Y-9048761D01*
X9295000Y-8896380D01*
X9261666Y-8820190D01*
X9195000Y-8744000D01*
X9095000Y-8705904D01*
X9028333Y-8705904D01*
X8928333Y-8744000D01*
X8895000Y-8782095D01*
X8628333Y-8782095D02*
X8595000Y-8744000D01*
X8528333Y-8705904D01*
X8361666Y-8705904D01*
X8295000Y-8744000D01*
X8261666Y-8782095D01*
X8228333Y-8858285D01*
X8228333Y-8934476D01*
X8261666Y-9048761D01*
X8661666Y-9505904D01*
X8228333Y-9505904D01*
X7795000Y-8705904D02*
X7728333Y-8705904D01*
X7661666Y-8744000D01*
X7628333Y-8782095D01*
X7595000Y-8858285D01*
X7561666Y-9010666D01*
X7561666Y-9201142D01*
X7595000Y-9353523D01*
X7628333Y-9429714D01*
X7661666Y-9467809D01*
X7728333Y-9505904D01*
X7795000Y-9505904D01*
X7861666Y-9467809D01*
X7895000Y-9429714D01*
X7928333Y-9353523D01*
X7961666Y-9201142D01*
X7961666Y-9010666D01*
X7928333Y-8858285D01*
X7895000Y-8782095D01*
X7861666Y-8744000D01*
X7795000Y-8705904D01*
%TO.C,C16*%
X22129714Y-40774200D02*
X22167809Y-40740866D01*
X22205904Y-40640866D01*
X22205904Y-40574200D01*
X22167809Y-40474200D01*
X22091619Y-40407533D01*
X22015428Y-40374200D01*
X21863047Y-40340866D01*
X21748761Y-40340866D01*
X21596380Y-40374200D01*
X21520190Y-40407533D01*
X21444000Y-40474200D01*
X21405904Y-40574200D01*
X21405904Y-40640866D01*
X21444000Y-40740866D01*
X21482095Y-40774200D01*
X22205904Y-41440866D02*
X22205904Y-41040866D01*
X22205904Y-41240866D02*
X21405904Y-41240866D01*
X21520190Y-41174200D01*
X21596380Y-41107533D01*
X21634476Y-41040866D01*
X21405904Y-42040866D02*
X21405904Y-41907533D01*
X21444000Y-41840866D01*
X21482095Y-41807533D01*
X21596380Y-41740866D01*
X21748761Y-41707533D01*
X22053523Y-41707533D01*
X22129714Y-41740866D01*
X22167809Y-41774200D01*
X22205904Y-41840866D01*
X22205904Y-41974200D01*
X22167809Y-42040866D01*
X22129714Y-42074200D01*
X22053523Y-42107533D01*
X21863047Y-42107533D01*
X21786857Y-42074200D01*
X21748761Y-42040866D01*
X21710666Y-41974200D01*
X21710666Y-41840866D01*
X21748761Y-41774200D01*
X21786857Y-41740866D01*
X21863047Y-41707533D01*
%TO.C,C21*%
X10864000Y-7270714D02*
X10897333Y-7308809D01*
X10997333Y-7346904D01*
X11064000Y-7346904D01*
X11164000Y-7308809D01*
X11230666Y-7232619D01*
X11264000Y-7156428D01*
X11297333Y-7004047D01*
X11297333Y-6889761D01*
X11264000Y-6737380D01*
X11230666Y-6661190D01*
X11164000Y-6585000D01*
X11064000Y-6546904D01*
X10997333Y-6546904D01*
X10897333Y-6585000D01*
X10864000Y-6623095D01*
X10597333Y-6623095D02*
X10564000Y-6585000D01*
X10497333Y-6546904D01*
X10330666Y-6546904D01*
X10264000Y-6585000D01*
X10230666Y-6623095D01*
X10197333Y-6699285D01*
X10197333Y-6775476D01*
X10230666Y-6889761D01*
X10630666Y-7346904D01*
X10197333Y-7346904D01*
X9530666Y-7346904D02*
X9930666Y-7346904D01*
X9730666Y-7346904D02*
X9730666Y-6546904D01*
X9797333Y-6661190D01*
X9864000Y-6737380D01*
X9930666Y-6775476D01*
%TO.C,C5*%
X15051866Y-43592714D02*
X15085200Y-43630809D01*
X15185200Y-43668904D01*
X15251866Y-43668904D01*
X15351866Y-43630809D01*
X15418533Y-43554619D01*
X15451866Y-43478428D01*
X15485200Y-43326047D01*
X15485200Y-43211761D01*
X15451866Y-43059380D01*
X15418533Y-42983190D01*
X15351866Y-42907000D01*
X15251866Y-42868904D01*
X15185200Y-42868904D01*
X15085200Y-42907000D01*
X15051866Y-42945095D01*
X14418533Y-42868904D02*
X14751866Y-42868904D01*
X14785200Y-43249857D01*
X14751866Y-43211761D01*
X14685200Y-43173666D01*
X14518533Y-43173666D01*
X14451866Y-43211761D01*
X14418533Y-43249857D01*
X14385200Y-43326047D01*
X14385200Y-43516523D01*
X14418533Y-43592714D01*
X14451866Y-43630809D01*
X14518533Y-43668904D01*
X14685200Y-43668904D01*
X14751866Y-43630809D01*
X14785200Y-43592714D01*
%TO.C,R6*%
X24043466Y-18174904D02*
X24276800Y-17793952D01*
X24443466Y-18174904D02*
X24443466Y-17374904D01*
X24176800Y-17374904D01*
X24110133Y-17413000D01*
X24076800Y-17451095D01*
X24043466Y-17527285D01*
X24043466Y-17641571D01*
X24076800Y-17717761D01*
X24110133Y-17755857D01*
X24176800Y-17793952D01*
X24443466Y-17793952D01*
X23443466Y-17374904D02*
X23576800Y-17374904D01*
X23643466Y-17413000D01*
X23676800Y-17451095D01*
X23743466Y-17565380D01*
X23776800Y-17717761D01*
X23776800Y-18022523D01*
X23743466Y-18098714D01*
X23710133Y-18136809D01*
X23643466Y-18174904D01*
X23510133Y-18174904D01*
X23443466Y-18136809D01*
X23410133Y-18098714D01*
X23376800Y-18022523D01*
X23376800Y-17832047D01*
X23410133Y-17755857D01*
X23443466Y-17717761D01*
X23510133Y-17679666D01*
X23643466Y-17679666D01*
X23710133Y-17717761D01*
X23743466Y-17755857D01*
X23776800Y-17832047D01*
%TO.C,R7*%
X24043466Y-15634904D02*
X24276800Y-15253952D01*
X24443466Y-15634904D02*
X24443466Y-14834904D01*
X24176800Y-14834904D01*
X24110133Y-14873000D01*
X24076800Y-14911095D01*
X24043466Y-14987285D01*
X24043466Y-15101571D01*
X24076800Y-15177761D01*
X24110133Y-15215857D01*
X24176800Y-15253952D01*
X24443466Y-15253952D01*
X23810133Y-14834904D02*
X23343466Y-14834904D01*
X23643466Y-15634904D01*
%TO.C,R17*%
X15253904Y-46794000D02*
X14872952Y-46560666D01*
X15253904Y-46394000D02*
X14453904Y-46394000D01*
X14453904Y-46660666D01*
X14492000Y-46727333D01*
X14530095Y-46760666D01*
X14606285Y-46794000D01*
X14720571Y-46794000D01*
X14796761Y-46760666D01*
X14834857Y-46727333D01*
X14872952Y-46660666D01*
X14872952Y-46394000D01*
X15253904Y-47460666D02*
X15253904Y-47060666D01*
X15253904Y-47260666D02*
X14453904Y-47260666D01*
X14568190Y-47194000D01*
X14644380Y-47127333D01*
X14682476Y-47060666D01*
X14453904Y-47694000D02*
X14453904Y-48160666D01*
X15253904Y-47860666D01*
D11*
%TO.C,D2*%
X13532000Y-49351600D02*
X16482000Y-49351600D01*
X15932000Y-52451600D02*
X13532000Y-52451600D01*
%TO.C,Q2*%
X18351000Y-12029000D02*
X17701000Y-12029000D01*
X18351000Y-12029000D02*
X19001000Y-12029000D01*
X18351000Y-15149000D02*
X19001000Y-15149000D01*
X18351000Y-15149000D02*
X16676000Y-15149000D01*
%TO.C,R5*%
X14430742Y-14082500D02*
X14905258Y-14082500D01*
X14430742Y-15127500D02*
X14905258Y-15127500D01*
%TO.C,R3*%
X15987500Y-54626742D02*
X15987500Y-55101258D01*
X17032500Y-54626742D02*
X17032500Y-55101258D01*
%TO.C,C17*%
X19911600Y-35622620D02*
X19911600Y-35903780D01*
X20931600Y-35622620D02*
X20931600Y-35903780D01*
%TO.C,R2*%
X13984500Y-54626742D02*
X13984500Y-55101258D01*
X12939500Y-54626742D02*
X12939500Y-55101258D01*
%TO.C,L2*%
X6085621Y-44452000D02*
X6411179Y-44452000D01*
X6085621Y-43432000D02*
X6411179Y-43432000D01*
%TO.C,U4*%
X10922000Y-37191000D02*
X12872000Y-37191000D01*
X10922000Y-37191000D02*
X8972000Y-37191000D01*
X10922000Y-42311000D02*
X12872000Y-42311000D01*
X10922000Y-42311000D02*
X7472000Y-42311000D01*
%TO.C,R20*%
X16628342Y-36764700D02*
X17102858Y-36764700D01*
X16628342Y-37809700D02*
X17102858Y-37809700D01*
%TO.C,R21*%
X11222258Y-11317500D02*
X10747742Y-11317500D01*
X11222258Y-10272500D02*
X10747742Y-10272500D01*
%TO.C,C19*%
X12102220Y-34491200D02*
X12383380Y-34491200D01*
X12102220Y-35511200D02*
X12383380Y-35511200D01*
%TO.C,C15*%
X9552400Y-44614220D02*
X9552400Y-44895380D01*
X8532400Y-44614220D02*
X8532400Y-44895380D01*
%TO.C,C11*%
X9927000Y-31699252D02*
X9927000Y-30276748D01*
X8107000Y-31699252D02*
X8107000Y-30276748D01*
%TO.C,R19*%
X16628342Y-35139100D02*
X17102858Y-35139100D01*
X16628342Y-36184100D02*
X17102858Y-36184100D01*
%TO.C,R1*%
X8113500Y-52594742D02*
X8113500Y-53069258D01*
X9158500Y-52594742D02*
X9158500Y-53069258D01*
%TO.C,C7*%
X16725020Y-38479000D02*
X17006180Y-38479000D01*
X16725020Y-39499000D02*
X17006180Y-39499000D01*
%TO.C,R4*%
X14905258Y-12050500D02*
X14430742Y-12050500D01*
X14905258Y-13095500D02*
X14430742Y-13095500D01*
%TO.C,L1*%
X17028379Y-41480200D02*
X16702821Y-41480200D01*
X17028379Y-40460200D02*
X16702821Y-40460200D01*
%TO.C,Q1*%
X10985000Y-15149000D02*
X10335000Y-15149000D01*
X10985000Y-12029000D02*
X12660000Y-12029000D01*
X10985000Y-15149000D02*
X11635000Y-15149000D01*
X10985000Y-12029000D02*
X10335000Y-12029000D01*
%TO.C,C22*%
X6209420Y-5463000D02*
X6490580Y-5463000D01*
X6209420Y-4443000D02*
X6490580Y-4443000D01*
%TO.C,C20*%
X10844420Y-9654000D02*
X11125580Y-9654000D01*
X10844420Y-8634000D02*
X11125580Y-8634000D01*
%TO.C,C16*%
X19860800Y-41109020D02*
X19860800Y-41390180D01*
X20880800Y-41109020D02*
X20880800Y-41390180D01*
%TO.C,C21*%
X6400748Y-6075000D02*
X7823252Y-6075000D01*
X6400748Y-7895000D02*
X7823252Y-7895000D01*
%TO.C,C5*%
X12840580Y-42822400D02*
X12559420Y-42822400D01*
X12840580Y-43842400D02*
X12559420Y-43842400D01*
%TO.C,R6*%
X23689542Y-15860500D02*
X24164058Y-15860500D01*
X23689542Y-16905500D02*
X24164058Y-16905500D01*
%TO.C,R7*%
X23689542Y-14365500D02*
X24164058Y-14365500D01*
X23689542Y-13320500D02*
X24164058Y-13320500D01*
%TO.C,R17*%
X12939500Y-47481258D02*
X12939500Y-47006742D01*
X13984500Y-47481258D02*
X13984500Y-47006742D01*
%TD*%
M02*
